<svg width="30" height="31" viewBox="0 0 30 31" fill="none" xmlns="http://www.w3.org/2000/svg">
<rect x="0.213867" y="0.757324" width="29.7717" height="29.7717" rx="14.8858" fill="#F2FDF6"/>
<path d="M18.2011 21.3801H11.9987C10.1379 21.3801 8.89746 20.4497 8.89746 18.2789V13.9372C8.89746 11.7663 10.1379 10.8359 11.9987 10.8359H18.2011C20.0618 10.8359 21.3023 11.7663 21.3023 13.9372V18.2789C21.3023 20.4497 20.0618 21.3801 18.2011 21.3801Z" stroke="#22C55E" stroke-width="0.930365" stroke-miterlimit="10" stroke-linecap="round" stroke-linejoin="round"/>
<path d="M15.1 17.969C16.1276 17.969 16.9607 17.1359 16.9607 16.1083C16.9607 15.0806 16.1276 14.2476 15.1 14.2476C14.0723 14.2476 13.2393 15.0806 13.2393 16.1083C13.2393 17.1359 14.0723 17.969 15.1 17.969Z" stroke="#22C55E" stroke-width="0.930365" stroke-miterlimit="10" stroke-linecap="round" stroke-linejoin="round"/>
<path d="M11.0693 14.5576V17.6588" stroke="#22C55E" stroke-width="0.930365" stroke-miterlimit="10" stroke-linecap="round" stroke-linejoin="round"/>
<path d="M19.1318 14.5576V17.6588" stroke="#22C55E" stroke-width="0.930365" stroke-miterlimit="10" stroke-linecap="round" stroke-linejoin="round"/>
</svg>
