<svg width="30" height="31" viewBox="0 0 30 31" fill="none" xmlns="http://www.w3.org/2000/svg">
<rect x="0.213867" y="0.719727" width="29.7717" height="29.7717" rx="14.8858" fill="#F4F0FF"/>
<path d="M15.5093 9.25789L15.4907 9.30131L13.692 13.4755H11.9243C11.5025 13.4755 11.0993 13.5624 10.7334 13.7174L11.8188 11.1248L11.8436 11.0628L11.8871 10.9636C11.8995 10.9263 11.9119 10.8891 11.9305 10.8581C12.743 8.97878 13.6609 8.55082 15.5093 9.25789Z" stroke="#936DFF" stroke-width="0.930365" stroke-linecap="round" stroke-linejoin="round"/>
<path d="M18.8518 13.6C18.5727 13.5132 18.275 13.476 17.9773 13.476H13.6914L15.4901 9.30172L15.5087 9.2583C15.6018 9.28931 15.6886 9.33273 15.7816 9.36994L17.1524 9.94677C17.9153 10.2631 18.4487 10.5918 18.7712 10.9888C18.8332 11.0632 18.8828 11.1314 18.9263 11.2121C18.9821 11.2989 19.0255 11.3857 19.0503 11.4788C19.0751 11.5346 19.0937 11.5904 19.1061 11.64C19.2736 12.161 19.1744 12.7999 18.8518 13.6Z" stroke="#936DFF" stroke-width="0.930365" stroke-linecap="round" stroke-linejoin="round"/>
<path d="M21.0052 16.5024V17.7118C21.0052 17.8359 20.999 17.9599 20.9928 18.084C20.875 20.2486 19.6655 21.3403 17.3706 21.3403H12.5327C12.3839 21.3403 12.235 21.3279 12.0923 21.3093C10.12 21.179 9.06556 20.1246 8.93531 18.1522C8.9167 18.0096 8.9043 17.8607 8.9043 17.7118V16.5024C8.9043 15.2557 9.66099 14.1827 10.7402 13.7175C11.1124 13.5624 11.5093 13.4756 11.9311 13.4756H17.9847C18.2886 13.4756 18.5863 13.519 18.8592 13.5996C20.0935 13.978 21.0052 15.1316 21.0052 16.5024Z" stroke="#936DFF" stroke-width="0.930365" stroke-linecap="round" stroke-linejoin="round"/>
<path d="M11.8188 11.125L10.7334 13.7176C9.65416 14.1828 8.89746 15.2558 8.89746 16.5025V14.6852C8.89746 12.9237 10.1504 11.4537 11.8188 11.125Z" stroke="#936DFF" stroke-width="0.930365" stroke-linecap="round" stroke-linejoin="round"/>
<path d="M21.0044 14.6852V16.5025C21.0044 15.138 20.0989 13.9781 18.8584 13.606C19.1809 12.7996 19.274 12.167 19.1189 11.6398C19.1065 11.584 19.0879 11.5281 19.0631 11.4785C20.2167 12.0739 21.0044 13.2958 21.0044 14.6852Z" stroke="#936DFF" stroke-width="0.930365" stroke-linecap="round" stroke-linejoin="round"/>
</svg>
