<svg width="17" height="14" viewBox="0 0 17 14" fill="none" xmlns="http://www.w3.org/2000/svg">
<path fill-rule="evenodd" clip-rule="evenodd" d="M0.988281 4.7788C0.988281 2.36991 3.1016 0.515137 5.58218 0.515137C6.86086 0.515137 7.98602 1.1147 8.79344 1.89048C9.60086 1.1147 10.726 0.515137 12.0047 0.515137C14.4853 0.515137 16.5986 2.36991 16.5986 4.7788C16.5986 6.42892 15.8949 7.88003 14.92 9.10665C13.9467 10.3311 12.6737 11.3704 11.4548 12.2148C10.9892 12.5374 10.5182 12.8349 10.0871 13.0544C9.68234 13.2606 9.21692 13.4494 8.79344 13.4494C8.36996 13.4494 7.90454 13.2606 7.49977 13.0544C7.06871 12.8349 6.5977 12.5374 6.13213 12.2148C4.91321 11.3704 3.64014 10.3311 2.6669 9.10665C1.69198 7.88003 0.988281 6.42892 0.988281 4.7788ZM5.58218 1.85316C3.72745 1.85316 2.32631 3.21715 2.32631 4.7788C2.32631 6.03075 2.85776 7.19635 3.71437 8.27411C4.57266 9.35398 5.72751 10.3068 6.8941 11.115C7.33554 11.4208 7.75133 11.681 8.10699 11.8621C8.48895 12.0566 8.71018 12.1114 8.79344 12.1114C8.8767 12.1114 9.09793 12.0566 9.47989 11.8621C9.83555 11.681 10.2513 11.4208 10.6928 11.115C11.8594 10.3068 13.0142 9.35398 13.8725 8.27411C14.7291 7.19635 15.2606 6.03075 15.2606 4.7788C15.2606 3.21715 13.8594 1.85316 12.0047 1.85316C10.9395 1.85316 9.94485 2.48955 9.3238 3.29727C9.19717 3.46197 9.0012 3.55849 8.79344 3.55849C8.58568 3.55849 8.38972 3.46197 8.26308 3.29727C7.64203 2.48955 6.64738 1.85316 5.58218 1.85316Z" fill="#323142"/>
</svg>
