<svg width="112" height="43" viewBox="0 0 112 43" fill="none" xmlns="http://www.w3.org/2000/svg">
<rect x="3.67383" y="4.97821" width="42.2674" height="37.3367" rx="6.96951" fill="#6C5FBC"/>
<rect x="1.0075" y="1.0075" width="40.2524" height="35.3217" rx="5.96201" fill="#DBD9EE" stroke="#6C5FBC" stroke-width="2.01499"/>
<path d="M32.623 12.0509L9.72148 11.9496" stroke="#6C5FBC" stroke-width="2.08432" stroke-linecap="round" stroke-linejoin="round"/>
<path d="M32.6024 16.635L27.5119 16.6165C25.4063 16.6089 23.7048 14.5468 23.7143 12.0142C23.7237 9.48166 25.4406 7.43199 27.5462 7.43962L32.6367 7.45807" stroke="#6C5FBC" stroke-width="2.08432" stroke-linecap="round" stroke-linejoin="round"/>
<path d="M17.3582 26.7205L10.7056 26.6517C10.1605 26.6497 9.70416 26.1115 9.69422 25.4557L9.65112 23.7267C9.6413 23.0411 10.1019 22.4616 10.6717 22.4636L17.25 22.5322L17.3582 26.7205Z" stroke="#6C5FBC" stroke-width="2.08432" stroke-linecap="round" stroke-linejoin="round"/>
<path d="M27.81 29.2118L18.4065 29.1032C17.8614 29.1012 17.405 28.5628 17.395 27.9067L17.2789 22.5237L32.5549 22.6983L32.5647 23.3842C32.6393 26.6349 30.4985 29.2514 27.81 29.2118Z" stroke="#6C5FBC" stroke-width="2.08432" stroke-linecap="round" stroke-linejoin="round"/>
<path d="M69.3081 21.6456C69.3081 22.0691 69.2798 22.4503 69.2234 22.7891H60.6472C60.7178 23.6361 61.0142 24.2996 61.5366 24.7796C62.0589 25.2596 62.7012 25.4996 63.4635 25.4996C64.5647 25.4996 65.3482 25.0266 65.8141 24.0808H69.0116C68.6728 25.2102 68.0234 26.1419 67.0634 26.876C66.1035 27.596 64.9247 27.956 63.5271 27.956C62.3977 27.956 61.3813 27.7089 60.4778 27.2148C59.5884 26.7066 58.8896 25.9937 58.3814 25.0761C57.8873 24.1584 57.6402 23.0996 57.6402 21.8997C57.6402 20.6856 57.8873 19.6198 58.3814 18.7021C58.8755 17.7845 59.5672 17.0787 60.4566 16.5846C61.346 16.0905 62.3695 15.8434 63.5271 15.8434C64.6423 15.8434 65.6376 16.0834 66.5129 16.5634C67.4022 17.0434 68.0869 17.7281 68.5669 18.6174C69.061 19.4927 69.3081 20.5021 69.3081 21.6456ZM66.2376 20.7985C66.2235 20.0362 65.9482 19.4292 65.4117 18.9774C64.8753 18.5116 64.2188 18.2786 63.4424 18.2786C62.7083 18.2786 62.0871 18.5045 61.5789 18.9563C61.0848 19.3939 60.7813 20.008 60.6683 20.7985H66.2376ZM70.7096 21.8573C70.7096 20.6715 70.9426 19.6198 71.4084 18.7021C71.8884 17.7845 72.5308 17.0787 73.3354 16.5846C74.1542 16.0905 75.0648 15.8434 76.0671 15.8434C76.9424 15.8434 77.7047 16.0199 78.3541 16.3728C79.0176 16.7257 79.547 17.1704 79.9423 17.7069V16.034H82.9281V27.7654H79.9423V26.0501C79.5611 26.6007 79.0317 27.0595 78.3541 27.4266C77.6906 27.7795 76.9212 27.956 76.0459 27.956C75.0577 27.956 74.1542 27.7019 73.3354 27.1936C72.5308 26.6854 71.8884 25.9725 71.4084 25.0549C70.9426 24.1231 70.7096 23.0573 70.7096 21.8573ZM79.9423 21.8997C79.9423 21.1797 79.8011 20.5656 79.5188 20.0574C79.2364 19.5351 78.8553 19.1398 78.3753 18.8715C77.8953 18.5892 77.38 18.448 76.8294 18.448C76.2789 18.448 75.7707 18.5821 75.3048 18.8504C74.8389 19.1186 74.4578 19.5139 74.1613 20.0362C73.8789 20.5444 73.7378 21.1515 73.7378 21.8573C73.7378 22.5632 73.8789 23.1844 74.1613 23.7208C74.4578 24.2431 74.8389 24.6455 75.3048 24.9278C75.7848 25.2102 76.293 25.3513 76.8294 25.3513C77.38 25.3513 77.8953 25.2172 78.3753 24.949C78.8553 24.6667 79.2364 24.2714 79.5188 23.7632C79.8011 23.2408 79.9423 22.6197 79.9423 21.8997ZM89.2752 18.4692V24.1443C89.2752 24.5396 89.3669 24.829 89.5505 25.0125C89.7481 25.1819 90.0728 25.2666 90.5246 25.2666H91.901V27.7654H90.0375C87.5388 27.7654 86.2894 26.5513 86.2894 24.1231V18.4692H84.8918V16.034H86.2894V13.1329H89.2752V16.034H91.901V18.4692H89.2752ZM96.9979 12.0953V27.7654H94.0333V12.0953H96.9979ZM111.15 16.034L103.887 33.3134H100.732L103.273 27.4689L98.5717 16.034H101.896L104.924 24.229L107.995 16.034H111.15Z" fill="#6C5FBC"/>
</svg>
