<svg width="12" height="17" viewBox="0 0 12 17" fill="none" xmlns="http://www.w3.org/2000/svg">
<path d="M9.29181 0.809497C6.9837 0.42255 4.61484 0.42255 2.30674 0.809497C1.46351 0.950863 0.791978 1.59822 0.622905 2.43758C-0.151652 6.28288 -0.193914 10.2398 0.498336 14.1007L0.780175 15.6727C0.86708 16.1574 1.45799 16.3511 1.815 16.0119L5.21695 12.7801C5.54328 12.4701 6.05527 12.4701 6.38159 12.7801L9.78354 16.0119C10.1406 16.3511 10.7315 16.1574 10.8184 15.6727L11.1002 14.1007C11.7925 10.2398 11.7502 6.28288 10.9756 2.43758C10.8066 1.59822 10.135 0.950863 9.29181 0.809497Z" fill="#6C5FBC"/>
</svg>
