<svg width="22" height="22" viewBox="0 0 22 22" fill="none" xmlns="http://www.w3.org/2000/svg">
<path d="M13.6156 17.7428C14.9711 18.4847 16.1631 17.5855 15.9039 16.0118L15.4384 13.1862L17.4102 11.1852C18.5068 10.0723 18.0538 8.61401 16.5361 8.38441L13.8112 7.97217L12.5986 5.4141C11.9194 3.9812 10.4446 3.96579 9.76406 5.40139L8.54543 7.97217L5.82051 8.38441C4.30502 8.61369 3.84828 10.0707 4.94645 11.1852L6.91822 13.1862L6.45275 16.0118C6.19387 17.5833 7.38367 18.4858 8.74108 17.7428L11.1783 16.4087L13.6156 17.7428Z" fill="#6C5FBC"/>
<mask id="mask0_5047_527" style="mask-type:luminance" maskUnits="userSpaceOnUse" x="4" y="4" width="15" height="15">
<path d="M13.6156 17.7428C14.9711 18.4847 16.1631 17.5855 15.9039 16.0118L15.4384 13.1862L17.4102 11.1852C18.5068 10.0723 18.0538 8.61401 16.5361 8.38441L13.8112 7.97217L12.5986 5.4141C11.9194 3.9812 10.4446 3.96579 9.76406 5.40139L8.54543 7.97217L5.82051 8.38441C4.30502 8.61369 3.84828 10.0707 4.94645 11.1852L6.91822 13.1862L6.45275 16.0118C6.19387 17.5833 7.38367 18.4858 8.74108 17.7428L11.1783 16.4087L13.6156 17.7428Z" fill="white"/>
</mask>
<g mask="url(#mask0_5047_527)">
</g>
</svg>
