<svg width="53" height="49" viewBox="0 0 53 49" fill="none" xmlns="http://www.w3.org/2000/svg">
<rect x="4.23877" y="5.74316" width="48.761" height="43.0728" rx="8.04025" fill="#6C5FBC"/>
<rect x="1.16228" y="1.16228" width="46.4364" height="40.7482" rx="6.87797" fill="#DBD9EE" stroke="#6C5FBC" stroke-width="2.32456"/>
<path d="M37.6362 13.9023L11.2162 13.7855" stroke="#6C5FBC" stroke-width="2.40454" stroke-linecap="round" stroke-linejoin="round"/>
<path d="M37.6199 19.1922L31.744 19.1662C29.3136 19.1555 27.348 16.7766 27.3569 13.8568C27.3659 10.937 29.346 8.57558 31.7765 8.58632L37.6523 8.6123" stroke="#6C5FBC" stroke-width="2.40454" stroke-linecap="round" stroke-linejoin="round"/>
<path d="M20.0285 30.8277L12.3518 30.7422C11.7228 30.7394 11.1957 30.1188 11.1838 29.3631L11.1327 27.3706C11.1208 26.5805 11.6518 25.9131 12.3094 25.916L19.9003 26.0011L20.0285 30.8277Z" stroke="#6C5FBC" stroke-width="2.40454" stroke-linecap="round" stroke-linejoin="round"/>
<path d="M32.0865 33.6975L21.2357 33.5636C20.6066 33.5608 20.0796 32.9402 20.0676 32.1844L19.9293 25.9835L37.5566 26.1988L37.5684 26.989C37.657 30.7336 35.1888 33.7455 32.0865 33.6975Z" stroke="#6C5FBC" stroke-width="2.40454" stroke-linecap="round" stroke-linejoin="round"/>
</svg>
